<svg xmlns="http://www.w3.org/2000/svg" width="116.058" height="223.683" viewBox="0 0 116.058 223.683">
  <g id="그룹_95" data-name="그룹 95" transform="translate(-5025.414 533.115)">
    <g id="그룹_54" data-name="그룹 54" transform="translate(4195.5 -726.944)">
      <g id="그룹_53" data-name="그룹 53">
        <path id="패스_51" data-name="패스 51" d="M837,237.68a74.991,74.991,0,0,1,8.6.48c.19.02,1.49.21.55.06-.86-.13.16.02.33.05.75.11,1.49.23,2.24.36,1.41.25,2.82.54,4.22.88a74.934,74.934,0,0,1,8.04,2.39c.71.26,1.42.52,2.12.8l1.05.42c.67.27.23.06-.18-.08a31.323,31.323,0,0,1,4.11,1.92c2.8,1.41,6.63.84,8.21-2.15,1.44-2.72.84-6.7-2.15-8.21A82.9,82.9,0,0,0,837,225.67a6.005,6.005,0,0,0,0,12.01Z" fill="#fcfcfc"/>
      </g>
    </g>
    <g id="그룹_66" data-name="그룹 66" transform="translate(4195.5 -726.944)">
      <g id="그룹_65" data-name="그룹 65">
        <path id="패스_57" data-name="패스 57" d="M904,241v6a4.463,4.463,0,0,0,.52,2.31,4.524,4.524,0,0,0,1.24,1.93,4.433,4.433,0,0,0,1.93,1.24A4.508,4.508,0,0,0,910,253l1.6-.21a6.066,6.066,0,0,0,2.65-1.54,6.224,6.224,0,0,0,1.76-4.24v-6a4.463,4.463,0,0,0-.52-2.31,4.524,4.524,0,0,0-1.24-1.93,4.433,4.433,0,0,0-1.93-1.24,4.508,4.508,0,0,0-2.31-.52l-1.6.21a6.066,6.066,0,0,0-2.65,1.54A6.2,6.2,0,0,0,904,241Z" fill="#fcfcfc"/>
      </g>
    </g>
    <g id="그룹_94" data-name="그룹 94">
      <g id="그룹_60" data-name="그룹 60" transform="translate(4195.5 -726.944)">
        <g id="그룹_59" data-name="그룹 59">
          <path id="패스_54" data-name="패스 54" d="M900.75,307.4a52,52,0,0,1-2.64-8.56c-.16-.75-.3-1.5-.43-2.25-.05-.27-.09-.55-.13-.82-.23-1.45.15,1.4-.01-.06-.17-1.52-.29-3.05-.34-4.58-.04-1.39-.03-2.78.04-4.17.03-.7.08-1.39.14-2.08.03-.35.06-.69.1-1.04.02-.21.04-.42.07-.62.08-.67.07-.55-.05.35a7.783,7.783,0,0,1,.34-2.06c.13-.68.26-1.37.42-2.04.33-1.49.74-2.97,1.2-4.43a18.37,18.37,0,0,1,1.43-3.92c-.81,1.32-.11.26.06-.1.14-.32.29-.63.44-.95.33-.69.68-1.37,1.04-2.05a77.733,77.733,0,0,1,5.46-8.54c.9-1.25,1.82-2.49,2.73-3.72.43-.58.85-1.18,1.31-1.74-.86,1.06-.32.41-.13.18.37-.45.73-.9,1.11-1.34a12.52,12.52,0,0,1,3.09-3.03c-1.17.6-.35.28,0,.04.29-.2.59-.4.9-.58.73-.45,1.49-.86,2.26-1.24s1.56-.74,2.35-1.08c.08-.03,1.39-.59.47-.2-.88.37.83-.34.99-.41,1.82-.76,3.65-1.52,5.47-2.29q5.475-2.28,10.94-4.57a6.671,6.671,0,0,0,3.59-2.76,6.116,6.116,0,0,0,.6-4.62c-.9-2.77-4.28-5.49-7.38-4.19-7.04,2.94-14.15,5.77-21.14,8.86a30.261,30.261,0,0,0-8.99,5.86,66.6,66.6,0,0,0-6.9,8.54,75.276,75.276,0,0,0-10.45,18.29,57.685,57.685,0,0,0-3.52,19.15,56.526,56.526,0,0,0,3.99,21.97,6.588,6.588,0,0,0,2.76,3.59,6.116,6.116,0,0,0,4.62.6c2.8-.91,5.46-4.27,4.19-7.39Z" fill="#fcfcfc"/>
        </g>
      </g>
      <g id="그룹_92" data-name="그룹 92">
        <g id="그룹_52" data-name="그룹 52" transform="translate(4195.5 -726.944)">
          <g id="그룹_51" data-name="그룹 51">
            <path id="패스_50" data-name="패스 50" d="M830.02,233.58a263.662,263.662,0,0,0,9.34,39.91c2.12,6.67,4.09,13.64,8.77,19.02,3.87,4.44,9.27,7.35,14.61,9.65,7.41,3.2,14.95,6.12,22.43,9.15a6.021,6.021,0,0,0,4.62-.6,6.169,6.169,0,0,0,2.76-3.59c.79-3.48-1.07-6.12-4.19-7.38-6.28-2.54-12.58-5.06-18.85-7.64l-.72-.3c-1.28-.53,1.27.56,0,0-.6-.26-1.19-.52-1.78-.79-1.24-.57-2.46-1.17-3.66-1.82-1.12-.62-2.22-1.28-3.28-2-.26-.18-.52-.37-.78-.55-.9-.64.32.2.31.25a14.272,14.272,0,0,0-1.7-1.49c-.45-.44-.88-.89-1.3-1.36-.08-.1-.16-.19-.24-.29-.4-.49-.32-.39.23.33.01-.02-.47-.66-.44-.62-.39-.57-.75-1.16-1.08-1.76-.21-.38-.4-.77-.59-1.16-.16-.34-.85-1.48-.09-.16a24.143,24.143,0,0,1-1.52-4.17q-.855-2.475-1.66-4.98-3-9.315-5.29-18.83-2.64-10.905-4.33-22a5.986,5.986,0,0,0-2.76-3.59,6.116,6.116,0,0,0-4.62-.6c-3.38,1.09-4.7,4.03-4.19,7.37Z" fill="#fcfcfc"/>
          </g>
        </g>
        <g id="그룹_56" data-name="그룹 56" transform="translate(4195.5 -726.944)">
          <g id="그룹_55" data-name="그룹 55">
            <path id="패스_52" data-name="패스 52" d="M884.92,198.07c-3.95,8.08-7.96,16.13-11.83,24.24-3.77,7.9-6.98,16.04-7.12,24.91-.11,7.21,1.66,14.38,4.12,21.11,1.34,3.66,2.88,7.24,4.42,10.82.69,1.59,1.38,3.19,2.07,4.78.18.41.36.83.53,1.24.08.18.15.36.23.53.26.61-.24-.57-.23-.55.34.83.69,1.66,1.03,2.49a94.083,94.083,0,0,1,3.84,11.15c.48,1.81.89,3.65,1.19,5.5.04.24.06.5.11.74-.06-.25-.16-1.32-.07-.48.06.5.11.99.16,1.49.09,1,.14,2,.16,3,.06,3.14,2.71,6.15,6,6a6.09,6.09,0,0,0,6-6,64,64,0,0,0-4.42-21.02c-1.34-3.61-2.86-7.15-4.39-10.69q-1.035-2.385-2.07-4.78c-.18-.41-.35-.83-.53-1.24-.08-.18-.15-.35-.23-.53-.26-.62.24.57.23.55-.33-.83-.69-1.65-1.02-2.48a95.94,95.94,0,0,1-3.37-9.61c-.45-1.6-.85-3.22-1.17-4.86-.15-.78-.24-1.58-.4-2.36-.01-.05.16,1.36.09.69-.02-.18-.04-.36-.06-.55-.05-.49-.1-.97-.13-1.46a39.407,39.407,0,0,1-.05-4.98c.05-.8.21-1.62.22-2.42,0,.04-.19,1.16-.06.47.04-.22.07-.45.11-.67q.15-.885.36-1.77a49.514,49.514,0,0,1,1.73-5.84c.33-.93.7-1.84,1.06-2.75.44-1.08-.37.82.11-.24.25-.56.49-1.11.74-1.66,4.1-9,8.65-17.83,12.99-26.72,1.38-2.82.86-6.62-2.15-8.21-2.69-1.42-6.73-.85-8.2,2.16Z" fill="#fcfcfc"/>
          </g>
        </g>
        <g id="그룹_58" data-name="그룹 58" transform="translate(4195.5 -726.944)">
          <g id="그룹_57" data-name="그룹 57">
            <path id="패스_53" data-name="패스 53" d="M887.29,205.62c.48.15.94.32,1.42.47,1.09.37-1.17-.58-.06-.03.78.39,1.55.77,2.29,1.22.32.19.63.4.93.6.15.1,1.46,1,.59.41-.85-.58.4.35.55.48.28.25.56.5.83.76a24.95,24.95,0,0,1,1.81,1.9c.25.29.49.58.73.87.76.92-.79-1.09.09.14a32.886,32.886,0,0,1,2.63,4.37c.17.34.33.68.49,1.02.1.23.21.46.31.69-.31-.73-.34-.79-.08-.17.31.86.63,1.7.91,2.57a52.116,52.116,0,0,1,1.53,6.18c.17.9.31,1.8.45,2.7q.15,1.02-.03-.24c.04.3.08.61.11.91.05.45.1.91.15,1.37.22,2.12.38,4.25.51,6.39.19,3.13,2.62,6.15,6,6,3.09-.14,6.21-2.64,6-6-.59-9.53-1.73-19.19-6.16-27.8-3.91-7.59-10.56-13.87-18.81-16.38a6,6,0,0,0-3.19,11.57Z" fill="#fcfcfc"/>
          </g>
        </g>
        <g id="그룹_64" data-name="그룹 64" transform="translate(4195.5 -726.944)">
          <g id="그룹_63" data-name="그룹 63">
            <path id="패스_56" data-name="패스 56" d="M933.94,237a69.825,69.825,0,0,1-.31,9.03c-.05.51-.48,2.94-.09.91-.14.71-.21,1.43-.33,2.14-.26,1.54-.58,3.07-.94,4.59a74.026,74.026,0,0,1-2.63,8.63c-.25.68-.51,1.35-.78,2.02-.16.39-.76,1.42.05-.1-.11.21-.19.45-.29.66-.63,1.44-1.3,2.85-2.02,4.25a77.951,77.951,0,0,1-4.59,7.79c-.81,1.2-1.64,2.38-2.52,3.54-.28.37-1.09,1.07.06-.07a8.915,8.915,0,0,0-.67.85q-.8.99-1.62,1.95a78.8,78.8,0,0,1-6.01,6.25c-1.06.98-2.15,1.94-3.26,2.86-.55.46-1.17.87-1.69,1.36,1.23-1.15.4-.31.07-.06-.39.29-.77.57-1.16.85a71.287,71.287,0,0,1-8.59,5.3c-1.49.78-3.02,1.49-4.56,2.17-1.2.53,1.32-.53.1-.05-.45.18-.9.36-1.35.53-.79.3-1.59.59-2.39.86-2.96,1.01-5.23,4.17-4.19,7.38.95,2.94,4.2,5.28,7.38,4.19a78.8,78.8,0,0,0,32.7-21.53,83.96,83.96,0,0,0,19-34.35A76.016,76.016,0,0,0,945.94,237c-.09-3.13-2.69-6.15-6-6a6.09,6.09,0,0,0-6,6Z" fill="#fcfcfc"/>
          </g>
        </g>
        <g id="그룹_68" data-name="그룹 68" transform="translate(4195.5 -726.944)">
          <g id="그룹_67" data-name="그룹 67">
            <path id="패스_58" data-name="패스 58" d="M885.06,311.63c2.32,7.36,4.59,14.73,6.18,22.29.39,1.87.75,3.74,1.07,5.63.13.78.26,1.57.38,2.35.07.47.15.94.2,1.42-.17-1.65.05.47.09.77a108.381,108.381,0,0,1,.77,11.38,91.885,91.885,0,0,1-.53,11.37c-.04.39-.1.79-.14,1.18-.11.98.23-1.48-.01.05q-.18,1.215-.39,2.43c-.28,1.57-.6,3.13-.98,4.68a74.908,74.908,0,0,1-2.84,9.14c-.14.37-.29.74-.44,1.11-.05.12-.1.25-.15.37-.25.6-.2.49.14-.33a8.311,8.311,0,0,1-.98,2.18c-.68,1.44-1.4,2.85-2.18,4.24q-1.26,2.25-2.7,4.38c-.52.77-1.05,1.52-1.6,2.26-.08.11-.16.21-.24.32-.39.51-.32.42.22-.27a5.752,5.752,0,0,1-.99,1.23,55.887,55.887,0,0,1-7.55,7.52c-2.43,2-2.23,6.44,0,8.49,2.59,2.37,5.89,2.14,8.49,0,10.72-8.82,17.96-21.48,21.69-34.73,4.27-15.17,3.8-31.21.98-46.59a217.105,217.105,0,0,0-6.92-26.04c-.94-2.99-4.22-5.21-7.38-4.19-3,.95-5.2,4.15-4.19,7.36Z" fill="#fcfcfc"/>
          </g>
        </g>
        <g id="그룹_70" data-name="그룹 70" transform="translate(4195.5 -726.944)">
          <g id="그룹_69" data-name="그룹 69">
            <path id="패스_59" data-name="패스 59" d="M904.09,363.6a76.41,76.41,0,0,0,37.65-22.91c2.61-2.93,3.1-7.76,0-10.61-2.85-2.62-7.82-3.13-10.61,0a71.338,71.338,0,0,1-5.26,5.32c-.95.86-1.92,1.69-2.92,2.5-.26.21-.53.42-.79.63-.72.58,1.31-.98.56-.43-.54.4-1.08.8-1.63,1.2a70.929,70.929,0,0,1-13.21,7.38c.6-.25,1.19-.5,1.79-.76a71.3,71.3,0,0,1-9.57,3.23,7.584,7.584,0,0,0-5.24,9.23,7.665,7.665,0,0,0,9.23,5.22Z" fill="#fcfcfc"/>
          </g>
        </g>
      </g>
    </g>
  </g>
</svg>
